<?xml version="1.0" standalone="no"?>
<!DOCTYPE svg PUBLIC "-//W3C//DTD SVG 20010904//EN"
 "http://www.w3.org/TR/2001/REC-SVG-20010904/DTD/svg10.dtd">
<svg version="1.0" xmlns="http://www.w3.org/2000/svg"
 width="350.000000pt" height="200.000000pt" viewBox="0 0 350.000000 200.000000"
 preserveAspectRatio="xMidYMid meet">

<g transform="translate(0.000000,200.000000) scale(0.100000,-0.100000)"
fill="#000000" stroke="none">
<path d="M2510 1504 c-35 -30 -35 -49 0 -49 23 0 25 -4 36 -62 7 -35 27 -43
41 -18 8 13 11 13 31 -1 29 -20 28 -30 -8 -49 -16 -8 -40 -34 -54 -58 -14 -23
-42 -58 -63 -78 -65 -60 -157 -143 -191 -171 l-33 -28 21 -30 c18 -25 19 -30
6 -30 -21 0 -21 -16 0 -24 26 -10 53 -7 61 8 4 7 55 45 112 83 l105 70 24 -91
c13 -51 32 -101 44 -113 24 -26 18 -69 -17 -123 -13 -19 -26 -46 -30 -60 -4
-13 -22 -46 -40 -72 -28 -41 -33 -58 -39 -135 -4 -48 -12 -123 -17 -167 -6
-43 -11 -94 -13 -113 -2 -42 -27 -63 -73 -63 -29 0 -33 -3 -33 -25 l0 -25 136
0 135 0 -7 23 c-10 26 -9 39 4 142 6 44 18 98 26 120 8 22 15 52 16 67 0 14 3
28 8 30 9 4 61 72 88 116 l21 34 25 -54 c14 -29 33 -74 42 -99 9 -25 35 -70
57 -100 22 -30 54 -83 71 -119 18 -36 40 -75 51 -87 19 -21 19 -21 -1 -32 -12
-6 -27 -11 -35 -11 -20 0 -28 -25 -14 -39 12 -12 98 -15 171 -5 38 6 46 10 46
28 -1 23 -22 105 -31 121 -4 6 -9 24 -13 40 -4 17 -13 37 -20 45 -13 15 -37
78 -61 164 -8 27 -30 73 -49 101 -35 50 -35 51 -30 135 11 175 15 157 -60 280
-37 61 -77 137 -90 168 -50 129 -115 212 -168 212 -14 0 -18 9 -18 44 0 51
-27 92 -76 112 -46 19 -58 18 -94 -12z"/>
<path d="M1630 1070 c0 -98 -2 -110 -17 -110 -10 -1 -98 0 -195 0 l-178 1 0
-184 c0 -102 3 -199 6 -216 l7 -31 183 0 c181 0 183 0 187 22 l4 23 2 -22 c1
-23 1 -23 191 -23 l190 0 0 100 c0 82 -3 100 -15 100 -8 0 -15 5 -15 10 0 6 7
10 15 10 12 0 15 18 15 100 0 82 -3 100 -15 100 -8 0 -15 5 -15 10 0 6 7 10
15 10 12 0 15 18 15 99 0 94 -1 99 -22 105 -13 3 -98 6 -190 6 l-168 0 0 -110z"/>
<path d="M2168 932 c-57 -58 -65 -97 -73 -355 l-8 -237 -38 0 -39 0 0 90 0 90
-187 -2 -188 -3 -6 -95 -5 -95 -2 98 -2 97 -185 0 -185 0 0 -95 c0 -89 -1 -95
-20 -95 -11 0 -38 -12 -60 -26 -33 -22 -40 -32 -39 -58 1 -17 3 -23 6 -14 7
28 51 23 65 -7 10 -22 8 -29 -11 -49 -31 -33 -31 -89 0 -122 27 -28 98 -34
119 -9 7 8 25 15 40 15 65 0 103 88 60 143 -11 14 -20 30 -20 36 0 12 461 16
473 5 4 -4 -5 -20 -18 -36 -46 -55 -25 -115 55 -157 43 -22 90 -27 119 -11 43
22 50 102 14 143 -13 14 -14 22 -5 42 10 21 19 25 52 25 22 0 40 -4 40 -10 0
-5 4 -10 8 -10 5 0 12 132 15 294 l6 294 30 61 c44 86 40 105 -11 53z m-44
-357 l-12 -270 3 255 c3 210 9 307 19 288 1 -2 -4 -124 -10 -273z"/>
<path d="M680 125 c-8 -10 -17 -12 -24 -6 -7 6 -17 6 -26 0 -13 -8 -11 -12 8
-29 l23 -19 -46 -6 c-49 -8 -58 -19 -22 -29 29 -8 171 -8 191 0 22 9 20 24 -3
24 -36 0 -53 11 -40 26 16 20 2 36 -21 24 -16 -8 -18 -7 -14 4 8 20 -12 28
-26 11z"/>
</g>
</svg>
